<svg xmlns="http://www.w3.org/2000/svg" viewBox="0 0 1200 800"><defs><linearGradient id="g" x1="0" x2="1"><stop stop-color="#0F2D5C"/><stop offset="1" stop-color="#B89B54" stop-opacity=".65"/></linearGradient></defs><rect width="1200" height="800" fill="#F7F7F5"/><rect width="1200" height="800" fill="url(#g)" opacity=".22"/><g fill="none" stroke="#0F2D5C" stroke-width="8" opacity=".55"><path d="M80 760V200h90V760"/><path d="M200 760V140h90V760"/><path d="M320 760V260h90V760"/><path d="M440 760V200h90V760"/><path d="M560 760V140h90V760"/><path d="M680 760V260h90V760"/><path d="M800 760V200h90V760"/><path d="M920 760V140h90V760"/><path d="M1040 760V260h90V760"/><path d="M60 760H1140M120 100H1080M170 150H1030"/></g><g fill="#B89B54" opacity=".75"><circle cx="950" cy="170" r="48"/><rect x="140" y="620" width="220" height="14" rx="7"/></g></svg>